<?xml version="1.0" encoding="UTF-8"?>
<svg id="Layer_2" data-name="Layer 2" xmlns="http://www.w3.org/2000/svg" viewBox="0 0 42.29 107.9">
  <defs>
    <style>
      .cls-1 {
        fill: #040304;
      }

      .cls-2 {
        fill: #feffde;
      }
    </style>
  </defs>
  <g id="Layer_26_copy" data-name="Layer 26 copy">
    <g>
      <g>
        <polygon class="cls-2" points="1.61 53.95 21.14 4.11 40.68 53.95 21.14 103.79 1.61 53.95"/>
        <path class="cls-1" d="M21.14,8.22l17.92,45.73-17.92,45.73L3.22,53.95,21.14,8.22M21.14,0l-2.79,7.13L.43,52.86l-.43,1.09.43,1.09,17.92,45.73,2.79,7.13,2.79-7.13,17.92-45.73.43-1.09-.43-1.09L23.94,7.13l-2.79-7.13h0Z"/>
      </g>
      <path class="cls-1" d="M21.14,8.22c1.37,30.47,1.38,60.99,0,91.46-1.38-30.47-1.37-60.99,0-91.46h0Z"/>
    </g>
  </g>
</svg>